<svg width="1440" height="658" viewBox="0 0 1440 658" fill="none" xmlns="http://www.w3.org/2000/svg">
<mask id="mask0" mask-type="alpha" maskUnits="userSpaceOnUse" x="0" y="0" width="1440" height="658">
<rect width="1440" height="658" fill="#C4C4C4"/>
</mask>
<g mask="url(#mask0)">
<path d="M595.173 367.401H593.466V614.611H595.173V367.401Z" fill="#7D9FAD" fill-opacity="0.08"/>
<path d="M607.116 356.675H584.199V625.095H607.116V356.675ZM602.971 620.706H588.588V361.307H602.971V620.706Z" fill="#7D9FAD" fill-opacity="0.08"/>
<path d="M598.096 367.401H596.146V614.611H598.096V367.401Z" fill="#7D9FAD" fill-opacity="0.08"/>
<path d="M746.322 537.571H717.067V544.885H746.322V537.571Z" fill="#7D9FAD" fill-opacity="0.08"/>
<path d="M1402.86 335.708V278.416H1359.46V238.921H1339.96H1320.46H1300.95V278.416H1257.07V335.708H1249.03V403.727H1199.05V381.054H1163.7V364.232H1140.78V347.41H1119.33L1118.11 308.403L1116.65 347.41H1095.44V364.232H1083.25V381.054H1065.69V403.727H1025.71V425.669H1014.25V546.104H1002.06V379.835H958.423V366.914H942.821V358.625H921.61V366.914V379.835V381.298V512.948L895.037 509.535V324.249H849.447V307.671H811.903H732.183V324.249H710.485V450.292H706.828V440.784H691.225V434.689H670.015V440.784V450.292V451.268V510.51H655.875V343.509H646.367V292.556H616.137V257.693H602.484H589.075H575.423V292.556H545.193V343.509H540.317V470.527H531.54V461.507H501.797V455.9V452.243V434.446H424.271H386.483V210.396H364.541V190.893H356.74V178.459H347.719L346.5 0L345.281 178.459H336.017V190.893H328.216V210.396H306.274V347.898H297.254V331.563L256.784 291.337L239.719 325.225V297.432H202.418V263.3H113.677V228.437H58.5795V201.864H22.9856V175.534H-10.4142L-12.6083 114.828L-15.0463 175.534H-47.9585V201.864H-66.7306V228.194H-94.0356V263.3H-156.203V297.432H-174V663.127H-12.3645H11.2835H1288.76H1297.05H1361.9H1417V335.708H1402.86ZM-123.047 622.413H-136.456V609.004H-123.047V622.413ZM-123.047 604.859H-136.456V591.451H-123.047V604.859ZM-123.047 587.306H-136.456V573.897H-123.047V587.306ZM-123.047 569.753H-136.456V556.344H-123.047V569.753ZM-123.047 552.443H-136.456V539.034H-123.047V552.443ZM-123.047 534.89H-136.456V521.481H-123.047V534.89ZM-123.047 517.336H-136.456V503.928H-123.047V517.336ZM-123.047 499.783H-136.456V486.374H-123.047V499.783ZM-123.047 482.23H-136.456V468.821H-123.047V482.23ZM-123.047 464.92H-136.456V451.511H-123.047V464.92ZM-123.047 447.367H-136.456V433.958H-123.047V447.367ZM-123.047 429.813H-136.456V416.405H-123.047V429.813ZM-123.047 412.26H-136.456V398.851H-123.047V412.26ZM-123.047 394.707H-136.456V381.298H-123.047V394.707ZM-123.047 377.397H-136.456V363.988H-123.047V377.397ZM-123.047 359.844H-136.456V346.435H-123.047V359.844ZM-123.047 342.29H-136.456V328.882H-123.047V342.29ZM-123.047 324.737H-136.456V311.328H-123.047V324.737ZM-104.762 622.413H-118.171V609.004H-104.762V622.413ZM-104.762 604.859H-118.171V591.451H-104.762V604.859ZM-104.762 587.306H-118.171V573.897H-104.762V587.306ZM-104.762 569.753H-118.171V556.344H-104.762V569.753ZM-104.762 552.443H-118.171V539.034H-104.762V552.443ZM-104.762 534.89H-118.171V521.481H-104.762V534.89ZM-104.762 517.336H-118.171V503.928H-104.762V517.336ZM-104.762 499.783H-118.171V486.374H-104.762V499.783ZM-104.762 482.23H-118.171V468.821H-104.762V482.23ZM-104.762 464.92H-118.171V451.511H-104.762V464.92ZM-104.762 447.367H-118.171V433.958H-104.762V447.367ZM-104.762 429.813H-118.171V416.405H-104.762V429.813ZM-104.762 412.26H-118.171V398.851H-104.762V412.26ZM-104.762 394.707H-118.171V381.298H-104.762V394.707ZM-104.762 377.397H-118.171V363.988H-104.762V377.397ZM-104.762 359.844H-118.171V346.435H-104.762V359.844ZM-104.762 342.29H-118.171V328.882H-104.762V342.29ZM-104.762 324.737H-118.171V311.328H-104.762V324.737ZM-86.4779 622.413H-99.8866V609.004H-86.4779V622.413ZM-86.4779 604.859H-99.8866V591.451H-86.4779V604.859ZM-86.4779 587.306H-99.8866V573.897H-86.4779V587.306ZM-86.4779 569.753H-99.8866V556.344H-86.4779V569.753ZM-86.4779 552.443H-99.8866V539.034H-86.4779V552.443ZM-86.4779 534.89H-99.8866V521.481H-86.4779V534.89ZM-86.4779 517.336H-99.8866V503.928H-86.4779V517.336ZM-86.4779 499.783H-99.8866V486.374H-86.4779V499.783ZM-86.4779 482.23H-99.8866V468.821H-86.4779V482.23ZM-86.4779 464.92H-99.8866V451.511H-86.4779V464.92ZM-86.4779 447.367H-99.8866V433.958H-86.4779V447.367ZM-86.4779 429.813H-99.8866V416.405H-86.4779V429.813ZM-86.4779 412.26H-99.8866V398.851H-86.4779V412.26ZM-86.4779 394.707H-99.8866V381.298H-86.4779V394.707ZM-86.4779 377.397H-99.8866V363.988H-86.4779V377.397ZM-86.4779 359.844H-99.8866V346.435H-86.4779V359.844ZM-86.4779 342.29H-99.8866V328.882H-86.4779V342.29ZM-86.4779 324.737H-99.8866V311.328H-86.4779V324.737ZM-68.4372 622.413H-81.8458V609.004H-68.4372V622.413ZM-68.4372 604.859H-81.8458V591.451H-68.4372V604.859ZM-68.4372 587.306H-81.8458V573.897H-68.4372V587.306ZM-68.4372 569.753H-81.8458V556.344H-68.4372V569.753ZM-68.4372 552.443H-81.8458V539.034H-68.4372V552.443ZM-68.4372 534.89H-81.8458V521.481H-68.4372V534.89ZM-68.4372 517.336H-81.8458V503.928H-68.4372V517.336ZM-68.4372 499.783H-81.8458V486.374H-68.4372V499.783ZM-68.4372 482.23H-81.8458V468.821H-68.4372V482.23ZM-68.4372 464.92H-81.8458V451.511H-68.4372V464.92ZM-68.4372 447.367H-81.8458V433.958H-68.4372V447.367ZM-68.4372 429.813H-81.8458V416.405H-68.4372V429.813ZM-68.4372 412.26H-81.8458V398.851H-68.4372V412.26ZM-68.4372 394.707H-81.8458V381.298H-68.4372V394.707ZM-68.4372 377.397H-81.8458V363.988H-68.4372V377.397ZM-68.4372 359.844H-81.8458V346.435H-68.4372V359.844ZM-68.4372 342.29H-81.8458V328.882H-68.4372V342.29ZM-68.4372 324.737H-81.8458V311.328H-68.4372V324.737ZM-50.1526 622.413H-63.5613V609.004H-50.1526V622.413ZM-50.1526 604.859H-63.5613V591.451H-50.1526V604.859ZM-50.1526 587.306H-63.5613V573.897H-50.1526V587.306ZM-50.1526 569.753H-63.5613V556.344H-50.1526V569.753ZM-50.1526 552.443H-63.5613V539.034H-50.1526V552.443ZM-50.1526 534.89H-63.5613V521.481H-50.1526V534.89ZM-50.1526 517.336H-63.5613V503.928H-50.1526V517.336ZM-50.1526 499.783H-63.5613V486.374H-50.1526V499.783ZM-50.1526 482.23H-63.5613V468.821H-50.1526V482.23ZM-50.1526 464.92H-63.5613V451.511H-50.1526V464.92ZM-50.1526 447.367H-63.5613V433.958H-50.1526V447.367ZM-50.1526 429.813H-63.5613V416.405H-50.1526V429.813ZM-50.1526 412.26H-63.5613V398.851H-50.1526V412.26ZM-50.1526 394.707H-63.5613V381.298H-50.1526V394.707ZM-50.1526 377.397H-63.5613V363.988H-50.1526V377.397ZM-50.1526 359.844H-63.5613V346.435H-50.1526V359.844ZM-50.1526 342.29H-63.5613V328.882H-50.1526V342.29ZM-50.1526 324.737H-63.5613V311.328H-50.1526V324.737ZM342.112 239.408H350.645V247.941H342.112V239.408ZM342.112 266.714H350.645V275.246H342.112V266.714ZM342.112 293.775H350.645V302.308H342.112V293.775ZM342.112 321.08H350.645V329.613H342.112V321.08ZM342.112 348.142H350.645V356.674H342.112V348.142ZM342.112 375.447H350.645V383.98H342.112V375.447ZM342.112 402.508H350.645V411.041H342.112V402.508ZM342.112 429.813H350.645V438.346H342.112V429.813ZM342.112 456.875H350.645V465.408H342.112V456.875ZM295.06 354.236H306.518V365.695H295.06V354.236ZM295.06 368.377H306.518V379.835H295.06V368.377ZM295.06 382.517H306.518V393.975H295.06V382.517ZM295.06 396.901H306.518V408.359H295.06V396.901ZM295.06 411.041H306.518V422.5H295.06V411.041ZM268.73 483.449V471.99H280.188V483.449H268.73ZM280.188 486.618V498.076H268.73V486.618H280.188ZM268.73 469.065V457.606H280.188V469.065H268.73ZM268.73 454.437V442.978H280.188V454.437H268.73ZM263.123 354.236H274.581V365.695H263.123V354.236ZM263.123 368.377H274.581V379.835H263.123V368.377ZM263.123 382.517H274.581V393.975H263.123V382.517ZM263.123 396.901H274.581V408.359H263.123V396.901ZM263.123 411.041H274.581V422.5H263.123V411.041ZM254.346 483.449V471.99H265.804V483.449H254.346ZM265.561 486.618V498.076H254.102V486.618H265.561ZM254.346 469.065V457.606H265.804V469.065H254.346ZM254.346 454.437V442.978H265.804V454.437H254.346ZM248.495 354.236H259.953V365.695H248.495V354.236ZM248.495 368.377H259.953V379.835H248.495V368.377ZM248.495 382.517H259.953V393.975H248.495V382.517ZM248.495 396.901H259.953V408.359H248.495V396.901ZM248.495 411.041H259.953V422.5H248.495V411.041ZM239.719 483.449V471.99H251.177V483.449H239.719ZM251.177 486.618V498.076H239.719V486.618H251.177ZM239.719 469.065V457.606H251.177V469.065H239.719ZM239.719 454.437V442.978H251.177V454.437H239.719ZM234.111 354.236H245.57V365.695H234.111V354.236ZM234.111 368.377H245.57V379.835H234.111V368.377ZM234.111 382.517H245.57V393.975H234.111V382.517ZM234.111 396.901H245.57V408.359H234.111V396.901ZM234.111 411.041H245.57V422.5H234.111V411.041ZM225.091 442.978H236.549V454.437H225.091V442.978ZM225.091 457.606H236.549V469.065H225.091V457.606ZM225.091 486.618H236.549V498.076H225.091V486.618ZM31.5184 622.413H18.1097V609.004H31.5184V622.413ZM31.5184 604.859H18.1097V591.451H31.5184V604.859ZM31.5184 587.306H18.1097V573.897H31.5184V587.306ZM31.5184 569.753H18.1097V556.344H31.5184V569.753ZM31.5184 552.443H18.1097V539.034H31.5184V552.443ZM31.5184 534.89H18.1097V521.481H31.5184V534.89ZM31.5184 517.336H18.1097V503.928H31.5184V517.336ZM31.5184 499.783H18.1097V486.374H31.5184V499.783ZM31.5184 482.23H18.1097V468.821H31.5184V482.23ZM31.5184 464.92H18.1097V451.511H31.5184V464.92ZM31.5184 447.367H18.1097V433.958H31.5184V447.367ZM31.5184 429.813H18.1097V416.405H31.5184V429.813ZM31.5184 412.26H18.1097V398.851H31.5184V412.26ZM31.5184 394.707H18.1097V381.298H31.5184V394.707ZM31.5184 377.397H18.1097V363.988H31.5184V377.397ZM31.5184 359.844H18.1097V346.435H31.5184V359.844ZM31.5184 342.29H18.1097V328.882H31.5184V342.29ZM31.5184 324.737H18.1097V311.328H31.5184V324.737ZM49.3154 622.413H35.9067V609.004H49.3154V622.413ZM49.3154 604.859H35.9067V591.451H49.3154V604.859ZM49.3154 587.306H35.9067V573.897H49.3154V587.306ZM49.3154 569.753H35.9067V556.344H49.3154V569.753ZM49.3154 552.443H35.9067V539.034H49.3154V552.443ZM49.3154 534.89H35.9067V521.481H49.3154V534.89ZM49.3154 517.336H35.9067V503.928H49.3154V517.336ZM49.3154 499.783H35.9067V486.374H49.3154V499.783ZM49.3154 482.23H35.9067V468.821H49.3154V482.23ZM49.3154 464.92H35.9067V451.511H49.3154V464.92ZM49.3154 447.367H35.9067V433.958H49.3154V447.367ZM49.3154 429.813H35.9067V416.405H49.3154V429.813ZM49.3154 412.26H35.9067V398.851H49.3154V412.26ZM49.3154 394.707H35.9067V381.298H49.3154V394.707ZM49.3154 377.397H35.9067V363.988H49.3154V377.397ZM49.3154 359.844H35.9067V346.435H49.3154V359.844ZM49.3154 342.29H35.9067V328.882H49.3154V342.29ZM49.3154 324.737H35.9067V311.328H49.3154V324.737ZM67.1123 622.413H53.7037V609.004H67.1123V622.413ZM67.1123 604.859H53.7037V591.451H67.1123V604.859ZM67.1123 587.306H53.7037V573.897H67.1123V587.306ZM67.1123 569.753H53.7037V556.344H67.1123V569.753ZM67.1123 552.443H53.7037V539.034H67.1123V552.443ZM67.1123 534.89H53.7037V521.481H67.1123V534.89ZM67.1123 517.336H53.7037V503.928H67.1123V517.336ZM67.1123 499.783H53.7037V486.374H67.1123V499.783ZM67.1123 482.23H53.7037V468.821H67.1123V482.23ZM67.1123 464.92H53.7037V451.511H67.1123V464.92ZM67.1123 447.367H53.7037V433.958H67.1123V447.367ZM67.1123 429.813H53.7037V416.405H67.1123V429.813ZM67.1123 412.26H53.7037V398.851H67.1123V412.26ZM67.1123 394.707H53.7037V381.298H67.1123V394.707ZM67.1123 377.397H53.7037V363.988H67.1123V377.397ZM67.1123 359.844H53.7037V346.435H67.1123V359.844ZM67.1123 342.29H53.7037V328.882H67.1123V342.29ZM67.1123 324.737H53.7037V311.328H67.1123V324.737ZM84.6655 622.413H71.2568V609.004H84.6655V622.413ZM84.6655 604.859H71.2568V591.451H84.6655V604.859ZM84.6655 587.306H71.2568V573.897H84.6655V587.306ZM84.6655 569.753H71.2568V556.344H84.6655V569.753ZM84.6655 552.443H71.2568V539.034H84.6655V552.443ZM84.6655 534.89H71.2568V521.481H84.6655V534.89ZM84.6655 517.336H71.2568V503.928H84.6655V517.336ZM84.6655 499.783H71.2568V486.374H84.6655V499.783ZM84.6655 482.23H71.2568V468.821H84.6655V482.23ZM84.6655 464.92H71.2568V451.511H84.6655V464.92ZM84.6655 447.367H71.2568V433.958H84.6655V447.367ZM84.6655 429.813H71.2568V416.405H84.6655V429.813ZM84.6655 412.26H71.2568V398.851H84.6655V412.26ZM84.6655 394.707H71.2568V381.298H84.6655V394.707ZM84.6655 377.397H71.2568V363.988H84.6655V377.397ZM84.6655 359.844H71.2568V346.435H84.6655V359.844ZM84.6655 342.29H71.2568V328.882H84.6655V342.29ZM84.6655 324.737H71.2568V311.328H84.6655V324.737ZM102.462 622.413H89.2976V609.004H102.706V622.413H102.462ZM102.462 604.859H89.2976V591.451H102.706V604.859H102.462ZM102.462 587.306H89.2976V573.897H102.706V587.306H102.462ZM102.462 569.753H89.2976V556.344H102.706V569.753H102.462ZM102.462 552.443H89.2976V539.034H102.706V552.443H102.462ZM102.462 534.89H89.2976V521.481H102.706V534.89H102.462ZM102.462 517.336H89.2976V503.928H102.706V517.336H102.462ZM102.462 499.783H89.2976V486.374H102.706V499.783H102.462ZM102.462 482.23H89.2976V468.821H102.706V482.23H102.462ZM102.462 464.92H89.2976V451.511H102.706V464.92H102.462ZM102.462 447.367H89.2976V433.958H102.706V447.367H102.462ZM102.462 429.813H89.2976V416.405H102.706V429.813H102.462ZM102.462 412.26H89.2976V398.851H102.706V412.26H102.462ZM102.462 394.707H89.2976V381.298H102.706V394.707H102.462ZM102.462 377.397H89.2976V363.988H102.706V377.397H102.462ZM102.462 359.844H89.2976V346.435H102.706V359.844H102.462ZM102.462 342.29H89.2976V328.882H102.706V342.29H102.462ZM102.462 324.737H89.2976V311.328H102.706V324.737H102.462ZM120.259 622.413H106.851V609.004H120.259V622.413ZM120.259 604.859H106.851V591.451H120.259V604.859ZM120.259 587.306H106.851V573.897H120.259V587.306ZM120.259 569.753H106.851V556.344H120.259V569.753ZM120.259 552.443H106.851V539.034H120.259V552.443ZM120.259 534.89H106.851V521.481H120.259V534.89ZM120.259 517.336H106.851V503.928H120.259V517.336ZM120.259 499.783H106.851V486.374H120.259V499.783ZM120.259 482.23H106.851V468.821H120.259V482.23ZM120.259 464.92H106.851V451.511H120.259V464.92ZM120.259 447.367H106.851V433.958H120.259V447.367ZM120.259 429.813H106.851V416.405H120.259V429.813ZM120.259 412.26H106.851V398.851H120.259V412.26ZM120.259 394.707H106.851V381.298H120.259V394.707ZM120.259 377.397H106.851V363.988H120.259V377.397ZM120.259 359.844H106.851V346.435H120.259V359.844ZM120.259 342.29H106.851V328.882H120.259V342.29ZM120.259 324.737H106.851V311.328H120.259V324.737ZM138.056 622.413H124.648V609.004H138.056V622.413ZM138.056 604.859H124.648V591.451H138.056V604.859ZM138.056 587.306H124.648V573.897H138.056V587.306ZM138.056 569.753H124.648V556.344H138.056V569.753ZM138.056 552.443H124.648V539.034H138.056V552.443ZM138.056 534.89H124.648V521.481H138.056V534.89ZM138.056 517.336H124.648V503.928H138.056V517.336ZM138.056 499.783H124.648V486.374H138.056V499.783ZM138.056 482.23H124.648V468.821H138.056V482.23ZM138.056 464.92H124.648V451.511H138.056V464.92ZM138.056 447.367H124.648V433.958H138.056V447.367ZM138.056 429.813H124.648V416.405H138.056V429.813ZM138.056 412.26H124.648V398.851H138.056V412.26ZM138.056 394.707H124.648V381.298H138.056V394.707ZM138.056 377.397H124.648V363.988H138.056V377.397ZM138.056 359.844H124.648V346.435H138.056V359.844ZM138.056 342.29H124.648V328.882H138.056V342.29ZM138.056 324.737H124.648V311.328H138.056V324.737ZM155.853 622.413H142.445V609.004H155.853V622.413ZM155.853 604.859H142.445V591.451H155.853V604.859ZM155.853 587.306H142.445V573.897H155.853V587.306ZM155.853 569.753H142.445V556.344H155.853V569.753ZM155.853 552.443H142.445V539.034H155.853V552.443ZM155.853 534.89H142.445V521.481H155.853V534.89ZM155.853 517.336H142.445V503.928H155.853V517.336ZM155.853 499.783H142.445V486.374H155.853V499.783ZM155.853 482.23H142.445V468.821H155.853V482.23ZM155.853 464.92H142.445V451.511H155.853V464.92ZM155.853 447.367H142.445V433.958H155.853V447.367ZM155.853 429.813H142.445V416.405H155.853V429.813ZM155.853 412.26H142.445V398.851H155.853V412.26ZM155.853 394.707H142.445V381.298H155.853V394.707ZM155.853 377.397H142.445V363.988H155.853V377.397ZM155.853 359.844H142.445V346.435H155.853V359.844ZM155.853 342.29H142.445V328.882H155.853V342.29ZM155.853 324.737H142.445V311.328H155.853V324.737ZM173.65 622.413H160.242V609.004H173.65V622.413ZM173.65 604.859H160.242V591.451H173.65V604.859ZM173.65 587.306H160.242V573.897H173.65V587.306ZM173.65 569.753H160.242V556.344H173.65V569.753ZM173.65 552.443H160.242V539.034H173.65V552.443ZM173.65 534.89H160.242V521.481H173.65V534.89ZM173.65 517.336H160.242V503.928H173.65V517.336ZM173.65 499.783H160.242V486.374H173.65V499.783ZM173.65 482.23H160.242V468.821H173.65V482.23ZM173.65 464.92H160.242V451.511H173.65V464.92ZM173.65 447.367H160.242V433.958H173.65V447.367ZM173.65 429.813H160.242V416.405H173.65V429.813ZM173.65 412.26H160.242V398.851H173.65V412.26ZM173.65 394.707H160.242V381.298H173.65V394.707ZM173.65 377.397H160.242V363.988H173.65V377.397ZM173.65 359.844H160.242V346.435H173.65V359.844ZM173.65 342.29H160.242V328.882H173.65V342.29ZM173.65 324.737H160.242V311.328H173.65V324.737ZM191.204 622.413H177.795V609.004H191.204V622.413ZM191.204 604.859H177.795V591.451H191.204V604.859ZM191.204 587.306H177.795V573.897H191.204V587.306ZM191.204 569.753H177.795V556.344H191.204V569.753ZM191.204 552.443H177.795V539.034H191.204V552.443ZM191.204 534.89H177.795V521.481H191.204V534.89ZM191.204 517.336H177.795V503.928H191.204V517.336ZM191.204 499.783H177.795V486.374H191.204V499.783ZM191.204 482.23H177.795V468.821H191.204V482.23ZM191.204 464.92H177.795V451.511H191.204V464.92ZM191.204 447.367H177.795V433.958H191.204V447.367ZM191.204 429.813H177.795V416.405H191.204V429.813ZM191.204 412.26H177.795V398.851H191.204V412.26ZM191.204 394.707H177.795V381.298H191.204V394.707ZM191.204 377.397H177.795V363.988H191.204V377.397ZM191.204 359.844H177.795V346.435H191.204V359.844ZM191.204 342.29H177.795V328.882H191.204V342.29ZM191.204 324.737H177.795V311.328H191.204V324.737ZM209 622.413H195.592V609.004H209V622.413ZM209 604.859H195.592V591.451H209V604.859ZM209 587.306H195.592V573.897H209V587.306ZM209 569.753H195.592V556.344H209V569.753ZM209 552.443H195.592V539.034H209V552.443ZM209 534.89H195.592V521.481H209V534.89ZM209 517.336H195.592V503.928H209V517.336ZM209 499.783H195.592V486.374H209V499.783ZM209 482.23H195.592V468.821H209V482.23ZM209 464.92H195.592V451.511H209V464.92ZM209 447.367H195.592V433.958H209V447.367ZM209 429.813H195.592V416.405H209V429.813ZM209 412.26H195.592V398.851H209V412.26ZM209 394.707H195.592V381.298H209V394.707ZM209 377.397H195.592V363.988H209V377.397ZM209 359.844H195.592V346.435H209V359.844ZM209 342.29H195.592V328.882H209V342.29ZM209 324.737H195.592V311.328H209V324.737ZM223.628 626.313H212.17V614.855H223.628V626.313ZM223.628 612.417H212.17V600.959H223.628V612.417ZM223.628 598.033H212.17V586.575H223.628V598.033ZM223.628 584.137H212.17V572.678H223.628V584.137ZM223.628 569.996H212.17V558.538H223.628V569.996ZM223.628 556.1H212.17V544.642H223.628V556.1ZM223.628 542.204H212.17V530.745H223.628V542.204ZM225.091 501.246H236.549V512.704H225.091V501.246ZM238.256 626.313H226.797V614.855H238.256V626.313ZM238.256 612.417H226.797V600.959H238.256V612.417ZM238.256 598.033H226.797V586.575H238.256V598.033ZM238.256 584.137H226.797V572.678H238.256V584.137ZM238.256 569.996H226.797V558.538H238.256V569.996ZM238.256 556.1H226.797V544.642H238.256V556.1ZM238.256 542.204H226.797V530.745H238.256V542.204ZM239.719 501.246H251.177V512.704H239.719V501.246ZM252.64 626.313H241.181V614.855H252.64V626.313ZM252.64 612.417H241.181V600.959H252.64V612.417ZM252.64 598.033H241.181V586.575H252.64V598.033ZM252.64 584.137H241.181V572.678H252.64V584.137ZM252.64 569.996H241.181V558.538H252.64V569.996ZM252.64 556.1H241.181V544.642H252.64V556.1ZM252.64 542.204H241.181V530.745H252.64V542.204ZM254.346 501.246H265.804V512.704H254.346V501.246ZM267.267 626.313H255.809V614.855H267.267V626.313ZM267.267 612.417H255.809V600.959H267.267V612.417ZM267.267 598.033H255.809V586.575H267.267V598.033ZM267.267 584.137H255.809V572.678H267.267V584.137ZM267.267 569.996H255.809V558.538H267.267V569.996ZM267.267 556.1H255.809V544.642H267.267V556.1ZM267.267 542.204H255.809V530.745H267.267V542.204ZM268.73 501.246H280.188V512.704H268.73V501.246ZM281.651 626.313H270.193V614.855H281.651V626.313ZM281.651 612.417H270.193V600.959H281.651V612.417ZM281.651 598.033H270.193V586.575H281.651V598.033ZM281.651 584.137H270.193V572.678H281.651V584.137ZM281.651 569.996H270.193V558.538H281.651V569.996ZM281.651 556.1H270.193V544.642H281.651V556.1ZM281.651 542.204H270.193V530.745H281.651V542.204ZM296.279 626.313H284.82V614.855H296.279V626.313ZM296.279 612.417H284.82V600.959H296.279V612.417ZM296.279 598.033H284.82V586.575H296.279V598.033ZM296.279 584.137H284.82V572.678H296.279V584.137ZM296.279 569.996H284.82V558.538H296.279V569.996ZM296.279 556.1H284.82V544.642H296.279V556.1ZM296.279 542.204H284.82V530.745H296.279V542.204ZM314.807 512.46H303.349V501.002H314.807V512.46ZM314.807 498.076H303.349V486.618H314.807V498.076ZM314.807 483.449H303.349V471.99H314.807V483.449ZM314.807 469.065H303.349V457.606H314.807V469.065ZM314.807 454.437H303.349V442.978H314.807V454.437ZM331.141 626.313H319.683V614.855H331.141V626.313ZM331.141 612.417H319.683V600.959H331.141V612.417ZM331.141 598.033H319.683V586.575H331.141V598.033ZM331.141 584.137H319.683V572.678H331.141V584.137ZM331.141 569.996H319.683V558.538H331.141V569.996ZM331.141 556.1H319.683V544.642H331.141V556.1ZM331.141 542.204H319.683V530.745H331.141V542.204ZM332.36 512.46H320.902V501.002H332.36V512.46ZM332.36 498.076H320.902V486.618H332.36V498.076ZM332.36 483.449H320.902V471.99H332.36V483.449ZM332.36 469.065H320.902V457.606H332.36V469.065ZM332.36 454.437H320.902V442.978H332.36V454.437ZM346.257 626.313H334.798V614.855H346.257V626.313ZM346.257 612.417H334.798V600.959H346.257V612.417ZM346.257 598.033H334.798V586.575H346.257V598.033ZM346.257 584.137H334.798V572.678H346.257V584.137ZM346.257 569.996H334.798V558.538H346.257V569.996ZM346.257 556.1H334.798V544.642H346.257V556.1ZM346.257 542.204H334.798V530.745H346.257V542.204ZM368.929 637.041H361.616V629.727H368.929V637.041ZM368.929 607.297H361.859V609.735H368.929V617.049H361.859V619.731H368.929V627.045H361.616V626.313H350.401V614.855H361.616V612.173H350.401V600.715H361.616V599.74H368.929V607.297ZM368.929 567.315H361.859V569.996H368.929V577.31H361.859V579.992H368.929V587.306H361.859V589.988H368.929V597.302H361.859V598.033H350.401V586.575H361.616V583.893H350.401V572.434H361.616V569.753H350.401V558.294H361.859V559.513H368.929V567.315ZM368.929 537.328H361.859V540.01H368.929V547.323H361.859V550.005H368.929V557.319H361.616V556.1H350.401V544.642H361.616V541.96H350.401V530.501H361.616V529.77H368.929V537.328ZM368.929 527.576H361.616V520.262H368.929V527.576ZM368.929 517.58H361.616V510.266H368.929V517.58ZM368.929 507.585H361.616V500.271H368.929V507.585ZM368.929 497.589H361.616V490.275H368.929V497.589ZM368.929 487.593H361.616V480.279H368.929V487.593ZM368.929 477.598H361.616V470.284H368.929V477.598ZM368.929 467.602H361.616V460.288H368.929V467.602ZM378.925 637.041H371.611V629.727H378.925V637.041ZM378.925 627.289H371.611V619.975H378.925V627.289ZM378.925 617.293H371.611V609.979H378.925V617.293ZM378.925 607.297H371.611V599.983H378.925V607.297ZM378.925 597.302H371.611V589.988H378.925V597.302ZM378.925 587.306H371.611V579.992H378.925V587.306ZM378.925 577.31H371.611V569.996H378.925V577.31ZM378.925 567.315H371.611V560.001H378.925V567.315ZM378.925 557.319H371.611V550.005H378.925V557.319ZM378.925 547.323H371.611V540.01H378.925V547.323ZM378.925 537.328H371.611V530.014H378.925V537.328ZM378.925 527.576H371.611V520.262H378.925V527.576ZM378.925 517.58H371.611V510.266H378.925V517.58ZM378.925 507.585H371.611V500.271H378.925V507.585ZM378.925 497.589H371.611V490.275H378.925V497.589ZM378.925 487.593H371.611V480.279H378.925V487.593ZM378.925 477.598H371.611V470.284H378.925V477.598ZM378.925 467.602H371.611V460.288H378.925V467.602ZM388.677 637.041H381.363V629.727H388.677V637.041ZM388.677 627.289H381.363V619.975H388.677V627.289ZM388.677 617.293H381.363V609.979H388.677V617.293ZM388.677 607.297H381.363V599.983H388.677V607.297ZM388.677 597.302H381.363V589.988H388.677V597.302ZM388.677 587.306H381.363V579.992H388.677V587.306ZM388.677 577.31H381.363V569.996H388.677V577.31ZM388.677 567.315H381.363V560.001H388.677V567.315ZM388.677 557.319H381.363V550.005H388.677V557.319ZM388.677 547.323H381.363V540.01H388.677V547.323ZM388.677 537.328H381.363V530.014H388.677V537.328ZM388.677 527.576H381.363V520.262H388.677V527.576ZM388.677 517.58H381.363V510.266H388.677V517.58ZM388.677 507.585H381.363V500.271H388.677V507.585ZM388.677 497.589H381.363V490.275H388.677V497.589ZM388.677 487.593H381.363V480.279H388.677V487.593ZM388.677 477.598H381.363V470.284H388.677V477.598ZM388.677 467.602H381.363V460.288H388.677V467.602ZM398.672 637.041H391.358V629.727H398.672V637.041ZM398.672 627.289H391.358V619.975H398.672V627.289ZM398.672 617.293H391.358V609.979H398.672V617.293ZM398.672 607.297H391.358V599.983H398.672V607.297ZM398.672 597.302H391.358V589.988H398.672V597.302ZM398.672 587.306H391.358V579.992H398.672V587.306ZM398.672 577.31H391.358V569.996H398.672V577.31ZM398.672 567.315H391.358V560.001H398.672V567.315ZM398.672 557.319H391.358V550.005H398.672V557.319ZM398.672 547.323H391.358V540.01H398.672V547.323ZM398.672 537.328H391.358V530.014H398.672V537.328ZM398.672 527.576H391.358V520.262H398.672V527.576ZM398.672 517.58H391.358V510.266H398.672V517.58ZM398.672 507.585H391.358V500.271H398.672V507.585ZM398.672 497.589H391.358V490.275H398.672V497.589ZM398.672 487.593H391.358V480.279H398.672V487.593ZM398.672 477.598H391.358V470.284H398.672V477.598ZM398.672 467.602H391.358V460.288H398.672V467.602ZM408.668 637.041H401.354V629.727H408.668V637.041ZM408.668 627.289H401.354V619.975H408.668V627.289ZM408.668 617.293H401.354V609.979H408.668V617.293ZM408.668 607.297H401.354V599.983H408.668V607.297ZM408.668 597.302H401.354V589.988H408.668V597.302ZM408.668 587.306H401.354V579.992H408.668V587.306ZM408.668 577.31H401.354V569.996H408.668V577.31ZM408.668 567.315H401.354V560.001H408.668V567.315ZM408.668 557.319H401.354V550.005H408.668V557.319ZM408.668 547.323H401.354V540.01H408.668V547.323ZM408.668 537.328H401.354V530.014H408.668V537.328ZM408.668 527.576H401.354V520.262H408.668V527.576ZM408.668 517.58H401.354V510.266H408.668V517.58ZM408.668 507.585H401.354V500.271H408.668V507.585ZM408.668 497.589H401.354V490.275H408.668V497.589ZM408.668 487.593H401.354V480.279H408.668V487.593ZM408.668 477.598H401.354V470.284H408.668V477.598ZM408.668 467.602H401.354V460.288H408.668V467.602ZM418.663 637.041H411.35V629.727H418.663V637.041ZM418.663 627.289H411.35V619.975H418.663V627.289ZM418.663 617.293H411.35V609.979H418.663V617.293ZM418.663 607.297H411.35V599.983H418.663V607.297ZM418.663 597.302H411.35V589.988H418.663V597.302ZM418.663 587.306H411.35V579.992H418.663V587.306ZM418.663 577.31H411.35V569.996H418.663V577.31ZM418.663 567.315H411.35V560.001H418.663V567.315ZM418.663 557.319H411.35V550.005H418.663V557.319ZM418.663 547.323H411.35V540.01H418.663V547.323ZM418.663 537.328H411.35V530.014H418.663V537.328ZM418.663 527.576H411.35V520.262H418.663V527.576ZM418.663 517.58H411.35V510.266H418.663V517.58ZM418.663 507.585H411.35V500.271H418.663V507.585ZM418.663 497.589H411.35V490.275H418.663V497.589ZM418.663 487.593H411.35V480.279H418.663V487.593ZM418.663 477.598H411.35V470.284H418.663V477.598ZM418.663 467.602H411.35V460.288H418.663V467.602ZM438.898 635.578H431.341V455.9H438.898V635.578ZM452.063 635.578H444.505V455.9H452.063V635.578ZM464.984 635.578H457.427V455.9H464.984V635.578ZM478.149 635.578H470.591V455.9H478.149V635.578ZM491.314 635.578H483.756V455.9H491.314V635.578ZM549.581 629.97H544.705V352.042H549.581V629.97ZM559.089 629.97H554.213V352.042H559.089V629.97ZM568.841 629.97H563.965V352.042H568.841V629.97ZM612.48 629.97H578.836V352.042H612.48V629.97ZM625.645 629.97H620.769V352.042H625.645V629.97ZM635.152 629.97H630.277V352.042H635.152V629.97ZM644.66 629.97H639.785V352.042H644.66V629.97ZM653.437 629.97H648.561V352.042H653.437V629.97ZM886.017 338.146V343.753H839.696V338.146H886.017ZM839.696 524.65V519.043H886.017V524.65H839.696ZM886.017 531.964V537.572H839.696V531.964H886.017ZM839.696 511.729V506.122H886.017V511.729H839.696ZM839.696 498.808V493.201H886.017V498.808H839.696ZM839.696 485.887V480.279H886.017V485.887H839.696ZM839.696 472.965V467.358H886.017V472.965H839.696ZM839.696 460.044V454.437H886.017V460.044H839.696ZM839.696 447.123V441.516H886.017V447.123H839.696ZM839.696 434.202V428.594H886.017V434.202H839.696ZM839.696 421.281V415.673H886.017V421.281H839.696ZM839.696 408.359V402.752H886.017V408.359H839.696ZM839.696 395.438V389.831H886.017V395.438H839.696ZM839.696 382.517V376.91H886.017V382.517H839.696ZM839.696 369.596V363.988H886.017V369.596H839.696ZM839.696 356.674V351.067H886.017V356.674H839.696ZM818.486 312.791H824.337V318.398H818.486V312.791ZM768.02 312.791H776.065V318.398H768.02V312.791ZM717.067 617.781H703.902V608.029H717.067V617.781ZM748.273 589.256H746.323H717.067V593.645H703.902V583.893H716.823V583.649H746.566V576.335H716.823V570.728H746.566V563.414H716.823V557.807H746.566V550.493H716.823V545.373H703.902V535.621H716.823V531.964H746.566V524.65H716.823V519.043H746.566V511.729H716.823V506.122H746.566V498.808H716.823V497.101H703.902V487.349H717.067V493.201H746.323V485.887H716.58V480.279H746.323V472.965H717.067H703.902V463.214H717.067V467.358H746.323V460.044H716.58V454.437H746.323V447.123H716.58V441.516H746.323V434.202H716.58V428.594H746.323V421.281H716.58V415.673H746.323V408.359H716.58V402.752H746.323V395.438H716.58V389.831H746.323V382.517H716.58V376.91H746.323V369.596H716.58V363.988H746.323V356.674H716.58V351.067H746.323V343.753H716.58V338.146H746.323H748.273V589.256ZM749.979 318.642H741.69V313.035H749.979V318.642ZM754.855 312.791H762.901V318.398H754.855V312.791ZM786.792 589.256H757.293V583.649H787.036V589.256H786.792ZM786.792 576.335H757.293V570.728H787.036V576.335H786.792ZM786.792 563.414H757.293V557.807H787.036V563.414H786.792ZM786.792 550.493H757.293V544.885H787.036V550.493H786.792ZM786.792 537.572H757.293V531.964H787.036V537.572H786.792ZM786.792 524.65H757.293V519.043H787.036V524.65H786.792ZM786.792 511.729H757.293V506.122H787.036V511.729H786.792ZM786.792 498.808H757.293V493.201H787.036V498.808H786.792ZM786.792 485.887H757.293V480.279H787.036V485.887H786.792ZM786.792 472.965H757.293V467.358H787.036V472.965H786.792ZM786.792 460.044H757.293V454.437H787.036V460.044H786.792ZM786.792 447.123H757.293V441.516H787.036V447.123H786.792ZM786.792 434.202H757.293V428.594H787.036V434.202H786.792ZM786.792 421.281H757.293V415.673H787.036V421.281H786.792ZM786.792 408.359H757.293V402.752H787.036V408.359H786.792ZM786.792 395.438H757.293V389.831H787.036V395.438H786.792ZM786.792 382.517H757.293V376.91H787.036V382.517H786.792ZM786.792 369.596H757.293V363.988H787.036V369.596H786.792ZM786.792 356.674H757.293V351.067H787.036V356.674H786.792ZM786.792 343.753H757.293V338.146H787.036V343.753H786.792ZM789.23 318.642H780.941V313.035H789.23V318.642ZM794.106 312.791H802.395V318.398H794.106V312.791ZM827.506 343.753H797.763V351.067H827.506V356.674H797.763V363.988H827.506V369.596H797.763V376.91H827.506V382.517H797.763V389.831H827.506V395.438H797.763V402.752H827.506V408.359H797.763V415.673H827.506V421.281H797.763V428.594H827.506V434.202H797.763V441.516H827.506V447.123H797.763V454.437H827.506V460.044H797.763V467.358H827.506V472.965H797.763V480.279H827.506V485.887H797.763V493.201H827.506V498.808H797.763V506.122H827.506V511.729H797.763V519.043H827.506V524.65H797.763V531.964H827.506V537.572H797.763V544.885H827.506V550.493H797.763V557.807H827.506V563.414H797.763V570.728H827.506V576.335H797.763V583.649H827.506V589.256H797.763H795.813V338.146H797.763H827.506V343.753ZM835.551 312.791H841.402V318.398H835.551V312.791ZM887.235 617.293H867.488V609.979H887.235V617.293ZM887.235 603.884H867.488V596.57H887.235V603.884ZM887.235 590.475H867.488V589.256H839.939V583.649H867.488V583.161H887.235V590.475ZM887.235 576.823H867.488V576.335H839.939V570.728H867.488V569.509H887.235V576.823ZM887.235 563.414H867.488H839.939V557.807H867.488V556.1H887.235V563.414ZM887.235 550.005H886.26V550.493H839.939V544.885H867.488V542.691H887.235V550.005ZM914.784 617.293H895.037V609.979H914.784V617.293ZM914.784 603.884H895.037V596.57H914.784V603.884ZM914.784 590.475H895.037V583.161H914.784V590.475ZM914.784 576.823H895.037V569.509H914.784V576.823ZM914.784 563.414H895.037V556.1H914.784V563.414ZM914.784 550.005H895.037V542.691H914.784V550.005ZM942.577 617.293H922.829V609.979H942.577V617.293ZM942.577 603.884H922.829V596.57H942.577V603.884ZM942.577 590.475H922.829V583.161H942.577V590.475ZM942.577 576.823H922.829V569.509H942.577V576.823ZM942.577 563.414H922.829V556.1H942.577V563.414ZM942.577 550.005H922.829V542.691H942.577V550.005ZM955.254 397.388H968.419V410.553H955.254V397.388ZM955.254 429.57H968.419V442.735H955.254V429.57ZM955.254 494.176H968.419V507.341H955.254V494.176ZM955.254 526.601H968.419V539.766H955.254V526.601ZM955.254 590.963H968.419V604.128H955.254V590.963ZM988.166 617.293H968.419V609.979H988.166V617.293ZM988.166 590.475H968.419V583.161H988.166V590.475ZM988.166 563.414H968.419V569.509H988.166V576.823H968.419V571.947H955.254V558.782H968.419V556.1H988.166V563.414ZM988.166 550.005H968.419V542.691H988.166V550.005ZM1047.16 633.871H1038.63V625.338H1047.16V633.871ZM1047.16 622.657H1038.63V614.124H1047.16V622.657ZM1047.16 611.442H1038.63V602.909H1047.16V611.442ZM1047.16 600.227H1038.63V591.694H1047.16V600.227ZM1047.16 589.013H1038.63V580.48H1047.16V589.013ZM1047.16 577.798H1038.63V569.265H1047.16V577.798ZM1047.16 566.34H1038.63V557.807H1047.16V566.34ZM1047.16 555.125H1038.63V546.592H1047.16V555.125ZM1047.16 543.91H1038.63V535.377H1047.16V543.91ZM1047.16 532.696H1038.63V524.163H1047.16V532.696ZM1047.16 521.481H1038.63V512.948H1047.16V521.481ZM1047.16 510.266H1038.63V501.733H1047.16V510.266ZM1047.16 499.052H1038.63V490.519H1047.16V499.052ZM1047.16 487.837H1038.63V479.304H1047.16V487.837ZM1047.16 476.622H1038.63V468.089H1047.16V476.622ZM1047.16 465.408H1038.63V456.875H1047.16V465.408ZM1047.16 454.193H1038.63V445.66H1047.16V454.193ZM1047.16 442.978H1038.63V434.446H1047.16V442.978ZM1058.87 633.871H1050.33V625.338H1058.87V633.871ZM1058.87 622.657H1050.33V614.124H1058.87V622.657ZM1058.87 611.442H1050.33V602.909H1058.87V611.442ZM1058.87 600.227H1050.33V591.694H1058.87V600.227ZM1058.87 589.013H1050.33V580.48H1058.87V589.013ZM1058.87 577.798H1050.33V569.265H1058.87V577.798ZM1058.87 566.34H1050.33V557.807H1058.87V566.34ZM1058.87 555.125H1050.33V546.592H1058.87V555.125ZM1058.87 543.91H1050.33V535.377H1058.87V543.91ZM1058.87 532.696H1050.33V524.163H1058.87V532.696ZM1058.87 521.481H1050.33V512.948H1058.87V521.481ZM1058.87 510.266H1050.33V501.733H1058.87V510.266ZM1058.87 499.052H1050.33V490.519H1058.87V499.052ZM1058.87 487.837H1050.33V479.304H1058.87V487.837ZM1058.87 476.622H1050.33V468.089H1058.87V476.622ZM1058.87 465.408H1050.33V456.875H1058.87V465.408ZM1058.87 454.193H1050.33V445.66H1058.87V454.193ZM1058.87 442.978H1050.33V434.446H1058.87V442.978ZM1070.57 633.871H1062.04V625.338H1070.57V633.871ZM1070.57 622.657H1062.04V614.124H1070.57V622.657ZM1070.57 611.442H1062.04V602.909H1070.57V611.442ZM1070.57 600.227H1062.04V591.694H1070.57V600.227ZM1070.57 589.013H1062.04V580.48H1070.57V589.013ZM1070.57 577.798H1062.04V569.265H1070.57V577.798ZM1070.57 566.34H1062.04V557.807H1070.57V566.34ZM1070.57 555.125H1062.04V546.592H1070.57V555.125ZM1070.57 543.91H1062.04V535.377H1070.57V543.91ZM1070.57 532.696H1062.04V524.163H1070.57V532.696ZM1070.57 521.481H1062.04V512.948H1070.57V521.481ZM1070.57 510.266H1062.04V501.733H1070.57V510.266ZM1070.57 499.052H1062.04V490.519H1070.57V499.052ZM1070.57 487.837H1062.04V479.304H1070.57V487.837ZM1070.57 476.622H1062.04V468.089H1070.57V476.622ZM1070.57 465.408H1062.04V456.875H1070.57V465.408ZM1070.57 454.193H1062.04V445.66H1070.57V454.193ZM1070.57 442.978H1062.04V434.446H1070.57V442.978ZM1082.27 633.871H1073.74V625.338H1082.27V633.871ZM1082.27 622.657H1073.74V614.124H1082.27V622.657ZM1082.27 611.442H1073.74V602.909H1082.27V611.442ZM1082.27 600.227H1073.74V591.694H1082.27V600.227ZM1082.27 589.013H1073.74V580.48H1082.27V589.013ZM1082.27 577.798H1073.74V569.265H1082.27V577.798ZM1082.27 566.34H1073.74V557.807H1082.27V566.34ZM1082.27 555.125H1073.74V546.592H1082.27V555.125ZM1082.27 543.91H1073.74V535.377H1082.27V543.91ZM1082.27 532.696H1073.74V524.163H1082.27V532.696ZM1082.27 521.481H1073.74V512.948H1082.27V521.481ZM1082.27 510.266H1073.74V501.733H1082.27V510.266ZM1082.27 499.052H1073.74V490.519H1082.27V499.052ZM1082.27 487.837H1073.74V479.304H1082.27V487.837ZM1082.27 476.622H1073.74V468.089H1082.27V476.622ZM1082.27 465.408H1073.74V456.875H1082.27V465.408ZM1082.27 454.193H1073.74V445.66H1082.27V454.193ZM1082.27 442.978H1073.74V434.446H1082.27V442.978ZM1093.97 633.871H1085.44V625.338H1093.97V633.871ZM1093.97 622.657H1085.44V614.124H1093.97V622.657ZM1093.97 611.442H1085.44V602.909H1093.97V611.442ZM1093.97 600.227H1085.44V591.694H1093.97V600.227ZM1093.97 589.013H1085.44V580.48H1093.97V589.013ZM1093.97 577.798H1085.44V569.265H1093.97V577.798ZM1093.97 566.34H1085.44V557.807H1093.97V566.34ZM1093.97 555.125H1085.44V546.592H1093.97V555.125ZM1093.97 543.91H1085.44V535.377H1093.97V543.91ZM1093.97 532.696H1085.44V524.163H1093.97V532.696ZM1093.97 521.481H1085.44V512.948H1093.97V521.481ZM1093.97 510.266H1085.44V501.733H1093.97V510.266ZM1093.97 499.052H1085.44V490.519H1093.97V499.052ZM1093.97 487.837H1085.44V479.304H1093.97V487.837ZM1093.97 476.622H1085.44V468.089H1093.97V476.622ZM1093.97 465.408H1085.44V456.875H1093.97V465.408ZM1093.97 454.193H1085.44V445.66H1093.97V454.193ZM1093.97 442.978H1085.44V434.446H1093.97V442.978ZM1146.39 633.871H1137.86V625.338H1146.39V633.871ZM1146.39 622.657H1137.86V614.124H1146.39V622.657ZM1146.39 611.442H1137.86V602.909H1146.39V611.442ZM1146.39 600.227H1137.86V591.694H1146.39V600.227ZM1146.39 589.013H1137.86V580.48H1146.39V589.013ZM1146.39 577.798H1137.86V569.265H1146.39V577.798ZM1146.39 566.34H1137.86V557.807H1146.39V566.34ZM1146.39 555.125H1137.86V546.592H1146.39V555.125ZM1146.39 543.91H1137.86V535.377H1146.39V543.91ZM1146.39 532.696H1137.86V524.163H1146.39V532.696ZM1146.39 521.481H1137.86V512.948H1146.39V521.481ZM1146.39 510.266H1137.86V501.733H1146.39V510.266ZM1146.39 499.052H1137.86V490.519H1146.39V499.052ZM1146.39 487.837H1137.86V479.304H1146.39V487.837ZM1146.39 476.622H1137.86V468.089H1146.39V476.622ZM1146.39 465.408H1137.86V456.875H1146.39V465.408ZM1146.39 454.193H1137.86V445.66H1146.39V454.193ZM1146.39 442.978H1137.86V434.446H1146.39V442.978ZM1157.6 633.871H1149.07V625.338H1157.6V633.871ZM1157.6 622.657H1149.07V614.124H1157.6V622.657ZM1157.6 611.442H1149.07V602.909H1157.6V611.442ZM1157.6 600.227H1149.07V591.694H1157.6V600.227ZM1157.6 589.013H1149.07V580.48H1157.6V589.013ZM1157.6 577.798H1149.07V569.265H1157.6V577.798ZM1157.6 566.34H1149.07V557.807H1157.6V566.34ZM1157.6 555.125H1149.07V546.592H1157.6V555.125ZM1157.6 543.91H1149.07V535.377H1157.6V543.91ZM1157.6 532.696H1149.07V524.163H1157.6V532.696ZM1157.6 521.481H1149.07V512.948H1157.6V521.481ZM1157.6 510.266H1149.07V501.733H1157.6V510.266ZM1157.6 499.052H1149.07V490.519H1157.6V499.052ZM1157.6 487.837H1149.07V479.304H1157.6V487.837ZM1157.6 476.622H1149.07V468.089H1157.6V476.622ZM1157.6 465.408H1149.07V456.875H1157.6V465.408ZM1157.6 454.193H1149.07V445.66H1157.6V454.193ZM1157.6 442.978H1149.07V434.446H1157.6V442.978ZM1169.06 633.871H1160.53V625.338H1169.06V633.871ZM1169.06 622.657H1160.53V614.124H1169.06V622.657ZM1169.06 611.442H1160.53V602.909H1169.06V611.442ZM1169.06 600.227H1160.53V591.694H1169.06V600.227ZM1169.06 589.013H1160.53V580.48H1169.06V589.013ZM1169.06 577.798H1160.53V569.265H1169.06V577.798ZM1169.06 566.34H1160.53V557.807H1169.06V566.34ZM1169.06 555.125H1160.53V546.592H1169.06V555.125ZM1169.06 543.91H1160.53V535.377H1169.06V543.91ZM1169.06 532.696H1160.53V524.163H1169.06V532.696ZM1169.06 521.481H1160.53V512.948H1169.06V521.481ZM1169.06 510.266H1160.53V501.733H1169.06V510.266ZM1169.06 499.052H1160.53V490.519H1169.06V499.052ZM1169.06 487.837H1160.53V479.304H1169.06V487.837ZM1169.06 476.622H1160.53V468.089H1169.06V476.622ZM1169.06 465.408H1160.53V456.875H1169.06V465.408ZM1169.06 454.193H1160.53V445.66H1169.06V454.193ZM1169.06 442.978H1160.53V434.446H1169.06V442.978ZM1180.52 633.871H1171.99V625.338H1180.52V633.871ZM1180.52 622.657H1171.99V614.124H1180.52V622.657ZM1180.52 611.442H1171.99V602.909H1180.52V611.442ZM1180.52 600.227H1171.99V591.694H1180.52V600.227ZM1180.52 589.013H1171.99V580.48H1180.52V589.013ZM1180.52 577.798H1171.99V569.265H1180.52V577.798ZM1180.52 566.34H1171.99V557.807H1180.52V566.34ZM1180.52 555.125H1171.99V546.592H1180.52V555.125ZM1180.52 543.91H1171.99V535.377H1180.52V543.91ZM1180.52 532.696H1171.99V524.163H1180.52V532.696ZM1180.52 521.481H1171.99V512.948H1180.52V521.481ZM1180.52 510.266H1171.99V501.733H1180.52V510.266ZM1180.52 499.052H1171.99V490.519H1180.52V499.052ZM1180.52 487.837H1171.99V479.304H1180.52V487.837ZM1180.52 476.622H1171.99V468.089H1180.52V476.622ZM1180.52 465.408H1171.99V456.875H1180.52V465.408ZM1180.52 454.193H1171.99V445.66H1180.52V454.193ZM1180.52 442.978H1171.99V434.446H1180.52V442.978ZM1191.98 633.871H1183.45V625.338H1191.98V633.871ZM1191.98 622.657H1183.45V614.124H1191.98V622.657ZM1191.98 611.442H1183.45V602.909H1191.98V611.442ZM1191.98 600.227H1183.45V591.694H1191.98V600.227ZM1191.98 589.013H1183.45V580.48H1191.98V589.013ZM1191.98 577.798H1183.45V569.265H1191.98V577.798ZM1191.98 566.34H1183.45V557.807H1191.98V566.34ZM1191.98 555.125H1183.45V546.592H1191.98V555.125ZM1191.98 543.91H1183.45V535.377H1191.98V543.91ZM1191.98 532.696H1183.45V524.163H1191.98V532.696ZM1191.98 521.481H1183.45V512.948H1191.98V521.481ZM1191.98 510.266H1183.45V501.733H1191.98V510.266ZM1191.98 499.052H1183.45V490.519H1191.98V499.052ZM1191.98 487.837H1183.45V479.304H1191.98V487.837ZM1191.98 476.622H1183.45V468.089H1191.98V476.622ZM1191.98 465.408H1183.45V456.875H1191.98V465.408ZM1191.98 454.193H1183.45V445.66H1191.98V454.193ZM1191.98 442.978H1183.45V434.446H1191.98V442.978ZM1203.19 633.871H1194.66V625.338H1203.19V633.871ZM1203.19 622.657H1194.66V614.124H1203.19V622.657ZM1203.19 611.442H1194.66V602.909H1203.19V611.442ZM1203.19 600.227H1194.66V591.694H1203.19V600.227ZM1203.19 589.013H1194.66V580.48H1203.19V589.013ZM1203.19 577.798H1194.66V569.265H1203.19V577.798ZM1203.19 566.34H1194.66V557.807H1203.19V566.34ZM1203.19 555.125H1194.66V546.592H1203.19V555.125ZM1203.19 543.91H1194.66V535.377H1203.19V543.91ZM1203.19 532.696H1194.66V524.163H1203.19V532.696ZM1203.19 521.481H1194.66V512.948H1203.19V521.481ZM1203.19 510.266H1194.66V501.733H1203.19V510.266ZM1203.19 499.052H1194.66V490.519H1203.19V499.052ZM1203.19 487.837H1194.66V479.304H1203.19V487.837ZM1203.19 476.622H1194.66V468.089H1203.19V476.622ZM1203.19 465.408H1194.66V456.875H1203.19V465.408ZM1203.19 454.193H1194.66V445.66H1203.19V454.193ZM1203.19 442.978H1194.66V434.446H1203.19V442.978ZM1214.65 633.871H1206.12V625.338H1214.65V633.871ZM1214.65 622.657H1206.12V614.124H1214.65V622.657ZM1214.65 611.442H1206.12V602.909H1214.65V611.442ZM1214.65 600.227H1206.12V591.694H1214.65V600.227ZM1214.65 589.013H1206.12V580.48H1214.65V589.013ZM1214.65 577.798H1206.12V569.265H1214.65V577.798ZM1214.65 566.34H1206.12V557.807H1214.65V566.34ZM1214.65 555.125H1206.12V546.592H1214.65V555.125ZM1214.65 543.91H1206.12V535.377H1214.65V543.91ZM1214.65 532.696H1206.12V524.163H1214.65V532.696ZM1214.65 521.481H1206.12V512.948H1214.65V521.481ZM1214.65 510.266H1206.12V501.733H1214.65V510.266ZM1214.65 499.052H1206.12V490.519H1214.65V499.052ZM1214.65 487.837H1206.12V479.304H1214.65V487.837ZM1214.65 476.622H1206.12V468.089H1214.65V476.622ZM1214.65 465.408H1206.12V456.875H1214.65V465.408ZM1214.65 454.193H1206.12V445.66H1214.65V454.193ZM1214.65 442.978H1206.12V434.446H1214.65V442.978ZM1226.11 633.871H1217.58V625.338H1226.11V633.871ZM1226.11 622.657H1217.58V614.124H1226.11V622.657ZM1226.11 611.442H1217.58V602.909H1226.11V611.442ZM1226.11 600.227H1217.58V591.694H1226.11V600.227ZM1226.11 589.013H1217.58V580.48H1226.11V589.013ZM1226.11 577.798H1217.58V569.265H1226.11V577.798ZM1226.11 566.34H1217.58V557.807H1226.11V566.34ZM1226.11 555.125H1217.58V546.592H1226.11V555.125ZM1226.11 543.91H1217.58V535.377H1226.11V543.91ZM1226.11 532.696H1217.58V524.163H1226.11V532.696ZM1226.11 521.481H1217.58V512.948H1226.11V521.481ZM1226.11 510.266H1217.58V501.733H1226.11V510.266ZM1226.11 499.052H1217.58V490.519H1226.11V499.052ZM1226.11 487.837H1217.58V479.304H1226.11V487.837ZM1226.11 476.622H1217.58V468.089H1226.11V476.622ZM1226.11 465.408H1217.58V456.875H1226.11V465.408ZM1226.11 454.193H1217.58V445.66H1226.11V454.193ZM1226.11 442.978H1217.58V434.446H1226.11V442.978ZM1237.57 633.871H1229.03V625.338H1237.57V633.871ZM1237.57 622.657H1229.03V614.124H1237.57V622.657ZM1237.57 611.442H1229.03V602.909H1237.57V611.442ZM1237.57 600.227H1229.03V591.694H1237.57V600.227ZM1237.57 589.013H1229.03V580.48H1237.57V589.013ZM1237.57 577.798H1229.03V569.265H1237.57V577.798ZM1237.57 566.34H1229.03V557.807H1237.57V566.34ZM1237.57 555.125H1229.03V546.592H1237.57V555.125ZM1237.57 543.91H1229.03V535.377H1237.57V543.91ZM1237.57 532.696H1229.03V524.163H1237.57V532.696ZM1237.57 521.481H1229.03V512.948H1237.57V521.481ZM1237.57 510.266H1229.03V501.733H1237.57V510.266ZM1237.57 499.052H1229.03V490.519H1237.57V499.052ZM1237.57 487.837H1229.03V479.304H1237.57V487.837ZM1237.57 476.622H1229.03V468.089H1237.57V476.622ZM1237.57 465.408H1229.03V456.875H1237.57V465.408ZM1237.57 454.193H1229.03V445.66H1237.57V454.193ZM1237.57 442.978H1229.03V434.446H1237.57V442.978ZM1248.78 633.871H1240.25V625.338H1248.78V633.871ZM1248.78 622.657H1240.25V614.124H1248.78V622.657ZM1248.78 611.442H1240.25V602.909H1248.78V611.442ZM1248.78 600.227H1240.25V591.694H1248.78V600.227ZM1248.78 589.013H1240.25V580.48H1248.78V589.013ZM1248.78 577.798H1240.25V569.265H1248.78V577.798ZM1248.78 566.34H1240.25V557.807H1248.78V566.34ZM1248.78 555.125H1240.25V546.592H1248.78V555.125ZM1248.78 543.91H1240.25V535.377H1248.78V543.91ZM1248.78 532.696H1240.25V524.163H1248.78V532.696ZM1248.78 521.481H1240.25V512.948H1248.78V521.481ZM1248.78 510.266H1240.25V501.733H1248.78V510.266ZM1248.78 499.052H1240.25V490.519H1248.78V499.052ZM1248.78 487.837H1240.25V479.304H1248.78V487.837ZM1248.78 476.622H1240.25V468.089H1248.78V476.622ZM1248.78 465.408H1240.25V456.875H1248.78V465.408ZM1248.78 454.193H1240.25V445.66H1248.78V454.193ZM1248.78 442.978H1240.25V434.446H1248.78V442.978ZM1262.68 658.738H1255.61V633.871H1251.71V625.338H1255.61V622.657H1251.71V614.124H1255.61V611.442H1251.71V602.909H1255.61V600.227H1251.71V591.694H1255.61V589.013H1251.71V580.48H1255.61V577.798H1251.71V569.265H1255.61V566.583H1251.71V558.05H1255.61V555.369H1251.71V546.836H1255.61V544.154H1251.71V535.621H1255.61V532.939H1251.71V524.163H1255.61V521.481H1251.71V512.948H1255.61V510.266H1251.71V501.733H1255.61V499.052H1251.71V490.519H1255.61V487.837H1251.71V479.304H1255.61V476.622H1251.71V468.089H1255.61V465.408H1251.71V456.875H1255.61V454.193H1251.71V445.66H1255.61V442.978H1251.71V434.446H1255.61V345.46H1262.68V658.738ZM1276.33 658.738H1269.26V345.216H1276.33V658.738ZM1290.23 658.738H1283.16V345.216H1290.23V658.738ZM1353.61 658.738H1304.85V345.216H1353.61V658.738ZM1372.39 658.738H1365.32V345.216H1372.39V658.738ZM1386.28 658.738H1379.21V345.216H1386.28V658.738ZM1400.18 658.738H1393.11V345.216H1400.18V658.738ZM1413.1 658.738H1406.03V345.216H1413.1V658.738Z" fill="#7D9FAD" fill-opacity="0.08"/>
<path d="M1332.65 362.525H1329.97V641.185H1332.65V362.525Z" fill="#7D9FAD" fill-opacity="0.08"/>
<path d="M1328.75 362.525H1326.07V641.185H1328.75V362.525Z" fill="#7D9FAD" fill-opacity="0.08"/>
<path d="M1346.06 350.823H1312.9V653.375H1346.06V350.823ZM1339.72 648.255H1318.75V355.699H1339.72V648.255Z" fill="#7D9FAD" fill-opacity="0.08"/>
</g>
</svg>
